# xmcd
#
# Track frame offsets:
# 150
# 12786
# 26849
# 39674
# 52122
# 62901
# 77263
# 88931
# 101557
# 116321
# 130305
# 144874
#
# Disc length: 2105 seconds
#
#
# Revision: 0
# Processed by: cddbd v1.5.1PL0 Copyright (c) Steve Scherf et al.
# Submitted via: FreeRIP 2.942 
#
DISCID=9908370c
DTITLE=Hank Snow The Singing Ranger - 
DYEAR=1900
DGENRE=Country
TTITLE0=Honeymoon on a Rocketship by Hank Snow
TTITLE1=The Engineer's Child by Hank Snow
TTITLE2=Ben Dewberry's Final Run by Hank Snow
TTITLE3=Born to be Happy by Hank snow
TTITLE4=The Gold Rush is Over by Hank Snow
TTITLE5=I Cried But My Tears Were Too Late by Hank Snow
TTITLE6=Mississippi River Blues by Hank Snow
TTITLE7=I Went To Your Wedding by Hank Snow
TTITLE8=The Night I Stole Old Sammy Morgan's Gin by Hank Snow
TTITLE9=Just A Fadded Petal From A Beautiful Bouquet by Hank Snow
TTITLE10=Somewhere Along Life's Highway by Hank Snow
TTITLE11=I'm Gonna Bid My Blues Goodby by Hank Snow
EXTD=
EXTT0=
EXTT1=
EXTT2=
EXTT3=
EXTT4=
EXTT5=
EXTT6=
EXTT7=
EXTT8=
EXTT9=
EXTT10=
EXTT11=
PLAYORDER=
